<?xml version="1.0" encoding="UTF-8"?>
<svg version="1.1" xmlns="http://www.w3.org/2000/svg" width="510" height="439">
<path d="M0 0 C4.53783478 2.99084565 7.24460824 6.60152853 8.75 11.8125 C10.04292079 20.05993056 9.77689128 28.31591507 9.57327271 36.63201904 C9.54133177 38.12068512 9.50992577 39.60936275 9.47900474 41.09805036 C9.39293199 45.16784539 9.29929997 49.23743605 9.20438075 53.30703306 C9.10312993 57.70546709 9.00894899 62.10405333 8.91387939 66.50262451 C8.72659092 75.11680075 8.53283862 83.73082004 8.33694352 92.34480438 C8.10850336 102.40169128 7.88670987 112.45872153 7.66522716 122.51576367 C7.26919302 140.48946133 6.86747063 158.46302729 6.46240234 176.43652344 C6.07068524 193.81795299 5.68242318 211.19945473 5.29833984 228.58105469 C5.27474656 229.64873175 5.25115327 230.71640881 5.22684504 231.81643972 C5.13197203 236.11005458 5.03710194 240.4036695 4.9422409 244.69728462 C4.57470677 261.3277276 4.20449043 277.95811101 3.83379558 294.5884838 C3.72228191 299.59158811 3.61088262 304.59469491 3.49975824 309.59780788 C3.26599903 320.12137332 3.03128344 330.64491577 2.79365624 341.16839465 C2.6955338 345.51433533 2.59786919 349.86028466 2.50166702 354.20626831 C2.31503099 362.62022266 2.11911853 371.03376619 1.90188171 379.44699034 C1.79413841 383.71461209 1.71155367 387.98186801 1.64818988 392.25037251 C1.61513039 394.32811682 1.57377289 396.4055134 1.5291518 398.48303914 C1.47586359 401.00413713 1.43597802 403.52557532 1.4131633 406.04713321 C1.18380454 415.36131984 -0.08842658 424.13100185 -7 430.875 C-12.69394252 435.22919134 -17.47334077 436.2296214 -24.5625 435.5 C-35.081041 433.42536314 -44.70042321 427.76447657 -54.08544922 422.77929688 C-63.70316972 417.67335645 -73.38056487 412.70392807 -83.125 407.84375 C-84.04119771 407.38672699 -84.04119771 407.38672699 -84.97590446 406.92047119 C-89.39918013 404.71495281 -93.82438747 402.51332458 -98.25 400.3125 C-103.29295943 397.80467335 -108.33516275 395.29534635 -113.375 392.78125 C-113.98286913 392.47802385 -114.59073826 392.17479771 -115.21702766 391.86238289 C-124.98794876 386.98386041 -134.6739816 381.96276017 -144.31658936 376.83636475 C-161.91131665 367.51882993 -179.81713264 359.31467245 -198.25 351.8125 C-202.23727494 355.6890173 -205.88533467 359.77645293 -209.5 364 C-214.03366928 369.26620872 -218.61422821 374.47996374 -223.28125 379.62890625 C-225.08534784 381.62987985 -226.86007017 383.6520031 -228.625 385.6875 C-232.91474245 390.60837697 -237.34298946 395.40150326 -241.76757812 400.20068359 C-243.25068556 401.8132454 -244.72748874 403.43138254 -246.203125 405.05078125 C-274.68828646 436.24191621 -274.68828646 436.24191621 -284.125 437.0625 C-289.45022764 434.93240894 -291.03505841 430.92878434 -293.25 425.8125 C-301.69204798 402.95411619 -304.86527642 377.92424604 -308.125 353.875 C-308.28924973 352.69371017 -308.28924973 352.69371017 -308.45681763 351.48855591 C-308.77256272 349.19302811 -309.07233008 346.89595146 -309.3671875 344.59765625 C-309.45748734 343.94744507 -309.54778717 343.29723389 -309.64082336 342.62731934 C-310.56882784 335.05649231 -310.32404269 327.42553702 -310.25 319.8125 C-335.61347838 319.23274919 -360.75579475 319.89326755 -386.05859375 321.78125 C-387.05127156 321.85519297 -387.05127156 321.85519297 -388.06400347 321.93062973 C-396.20491019 322.53921076 -404.34363896 323.17443492 -412.4816128 323.82093906 C-424.20443121 324.75187262 -435.92999581 325.64737544 -447.65556526 326.54286194 C-451.45913667 326.83608276 -455.2619899 327.13744376 -459.06480408 327.44030762 C-491.88798576 330.01936528 -491.88798576 330.01936528 -499.25 325.8125 C-499.74030359 319.56112917 -499.74030359 319.56112917 -497.64624023 316.36376953 C-494.92423034 313.46565405 -491.97321658 311.32865445 -488.66015625 309.1796875 C-487.68881241 308.53568748 -487.68881241 308.53568748 -486.69784546 307.87867737 C-484.57448369 306.47373242 -482.44365851 305.08058366 -480.3125 303.6875 C-478.81669016 302.70128215 -477.32133477 301.7143747 -475.82641602 300.72680664 C-472.02545994 298.21884039 -468.21813942 295.72074162 -464.4083252 293.22625732 C-461.78300868 291.50660893 -459.16032223 289.7829813 -456.53779602 288.05908203 C-450.61908973 284.1689725 -444.69276966 280.29060865 -438.76325989 276.41699219 C-432.26318277 272.1696828 -425.77240547 267.90823137 -419.2817688 263.64651489 C-407.84828018 256.13953668 -396.41016336 248.6396555 -384.96826172 241.14550781 C-375.39202567 234.8731387 -365.8200442 228.59431171 -356.25 222.3125 C-346.02358705 215.59995919 -335.79505082 208.89068104 -325.5625 202.1875 C-324.96869537 201.79850525 -324.37489075 201.4095105 -323.76309204 201.00872803 C-318.99841547 197.88751492 -314.23352701 194.76662535 -309.46862793 191.64575195 C-305.29148454 188.90982175 -301.11442815 186.17375879 -296.9375 183.4375 C-296.04715561 182.85424957 -296.04715561 182.85424957 -295.13882446 182.25921631 C-284.8289272 175.50503952 -274.52387238 168.74349983 -264.22006226 161.9800415 C-254.13956848 155.36327159 -244.05531856 148.75226743 -233.96826172 142.14550781 C-224.39202567 135.8731387 -214.8200442 129.59431171 -205.25 123.3125 C-195.02358705 116.59995919 -184.79505082 109.89068104 -174.5625 103.1875 C-173.96869537 102.79850525 -173.37489075 102.4095105 -172.76309204 102.00872803 C-167.99841547 98.88751492 -163.23352701 95.76662535 -158.46862793 92.64575195 C-154.29148454 89.90982175 -150.11442815 87.17375879 -145.9375 84.4375 C-145.34393707 84.04866638 -144.75037415 83.65983276 -144.13882446 83.25921631 C-133.8289272 76.50503952 -123.52387238 69.74349983 -113.22006226 62.9800415 C-103.14361622 56.3659285 -93.06372246 49.75710792 -82.98034668 43.15356445 C-75.25193234 38.09223373 -67.52676086 33.0260104 -59.80569458 27.95347595 C-56.33703742 25.67484674 -52.86758974 23.39744441 -49.39599609 21.12329102 C-48.07910117 20.26058003 -46.76220663 19.39786845 -45.4453125 18.53515625 C-44.8141452 18.12173477 -44.18297791 17.70831329 -43.53268433 17.28236389 C-39.94639053 14.93130696 -36.37095805 12.5649774 -32.8046875 10.18359375 C-11.28737004 -4.12423136 -11.28737004 -4.12423136 0 0 Z " fill="#50B9ED" transform="translate(500.25,2.1875)"/>
<path d="M0 0 C0.33 0.99 0.66 1.98 1 3 C0.05053711 4.70727539 0.05053711 4.70727539 -1.47265625 6.59765625 C-2.03533203 7.30728516 -2.59800781 8.01691406 -3.17773438 8.74804688 C-3.79970703 9.51181641 -4.42167969 10.27558594 -5.0625 11.0625 C-6.36615546 12.69900367 -7.66953336 14.33572848 -8.97265625 15.97265625 C-9.98030029 17.22780029 -9.98030029 17.22780029 -11.00830078 18.50830078 C-14.0455024 22.30796733 -17.02155381 26.15423434 -20 30 C-21.16632799 31.50026336 -22.33299593 33.00026249 -23.5 34.5 C-24.0775 35.2425 -24.655 35.985 -25.25 36.75 C-44.5 61.5 -44.5 61.5 -46.25097656 63.7512207 C-47.41443312 65.24711662 -48.57784478 66.74304745 -49.74121094 68.23901367 C-52.70661998 72.05209776 -55.67287262 75.86452064 -58.640625 79.67578125 C-63.77594703 86.27201386 -68.9087193 92.86968837 -74 99.5 C-79.69469554 106.91613129 -85.44087592 114.29198584 -91.18554688 121.66943359 C-94.12513338 125.44517266 -97.06247715 129.22265535 -100 133 C-101.16665539 134.50000877 -102.33332207 136.00000876 -103.5 137.5 C-104.0775 138.2425 -104.655 138.985 -105.25 139.75 C-138.5 182.5 -138.5 182.5 -140.25097656 184.7512207 C-141.41443312 186.24711662 -142.57784478 187.74304745 -143.74121094 189.23901367 C-146.70661998 193.05209776 -149.67287262 196.86452064 -152.640625 200.67578125 C-157.77594703 207.27201386 -162.9087193 213.86968837 -168 220.5 C-173.69469554 227.91613129 -179.44087592 235.29198584 -185.18554688 242.66943359 C-188.12513336 246.44517264 -191.06250584 250.22263307 -194 254 C-197.54572028 258.55949384 -201.09199896 263.1185484 -204.640625 267.67578125 C-207.56205525 271.42758305 -210.47924497 275.18265766 -213.39550781 278.93847656 C-214.91236476 280.88740231 -216.43573016 282.83104413 -217.9609375 284.7734375 C-218.84906719 285.91137339 -219.73709509 287.04938872 -220.625 288.1875 C-221.38039063 289.15042969 -222.13578125 290.11335938 -222.9140625 291.10546875 C-226.99002254 296.76143577 -229.41527111 301.47999441 -230.82421875 308.328125 C-230.971474 309.02203339 -231.11872925 309.71594177 -231.27044678 310.43087769 C-231.58681061 311.92364339 -231.89829138 313.41745094 -232.20529175 314.91217041 C-233.03829224 318.95070187 -233.91886434 322.97886832 -234.796875 327.0078125 C-235.06708717 328.25176285 -235.06708717 328.25176285 -235.34275818 329.52084351 C-239.55243622 348.77907199 -244.3591777 367.94600311 -250.6875 386.625 C-251.03159912 387.65512207 -251.37569824 388.68524414 -251.73022461 389.74658203 C-254.27481955 396.94372038 -257.54897864 403.54897864 -263 409 C-265.44140625 409.35546875 -265.44140625 409.35546875 -268 409 C-285.48674135 393.05999744 -285.83574453 349.48519955 -288.875 327.0625 C-289.03924973 325.88121017 -289.03924973 325.88121017 -289.20681763 324.67605591 C-293.20497394 295.60868731 -293.20497394 295.60868731 -288.5625 288.1875 C-287.40817884 286.76410631 -286.21799792 285.36930201 -285 284 C-284.34644531 283.16597656 -283.69289063 282.33195312 -283.01953125 281.47265625 C-277.97204588 275.06446444 -272.48302297 269.09122918 -266.91796875 263.13671875 C-264.3405344 260.3778814 -261.8200638 257.57265035 -259.3125 254.75 C-255.7917063 250.81536978 -252.1266663 247.07297538 -248.3359375 243.3984375 C-246.45391711 241.46606205 -244.70839283 239.50982851 -242.95799255 237.46217346 C-238.62614002 232.49881123 -233.99827339 227.85813819 -229.33618164 223.20678711 C-228.38241828 222.25166545 -227.42886707 221.2963319 -226.47550964 220.34080505 C-223.90754257 217.76831468 -221.33646531 215.19895477 -218.76464391 212.6303184 C-216.0602938 209.92851845 -213.3584053 207.22425851 -210.65611267 204.520401 C-206.11962389 199.98209824 -201.58104304 195.44589571 -197.04125977 190.91088867 C-191.80946187 185.6845319 -186.58127589 180.45458272 -181.35495096 175.22275347 C-176.84956456 170.71281391 -172.34221339 166.20484496 -167.83324522 161.69848639 C-165.14815845 159.01495031 -162.46373198 156.33076307 -159.78108406 153.64478874 C-157.25770565 151.11849951 -154.73185118 148.59471123 -152.20414925 146.07274818 C-150.84671663 144.71724601 -149.4917128 143.35931291 -148.1368103 142.00128174 C-143.79252391 137.67183556 -139.39077433 133.48167908 -134.72404385 129.50030613 C-131.87694688 127.02269105 -129.24015811 124.34455161 -126.59375 121.65625 C-126.02474976 121.08346313 -125.45574951 120.51067627 -124.86950684 119.92053223 C-123.07717018 118.11614749 -121.28815684 116.3085264 -119.5 114.5 C-106.1313623 100.97907513 -106.1313623 100.97907513 -99.93164062 95.70898438 C-95.75715763 92.01568547 -91.90976879 87.96900771 -88 84 C-82.79803766 78.71922004 -77.58895299 73.56390899 -71.9609375 68.73828125 C-68.30586083 65.49822325 -64.92108638 61.98340125 -61.5 58.5 C-56.78658234 53.70072774 -52.01956419 49.08486349 -46.91992188 44.69726562 C-43.80202793 41.94095857 -40.90991665 38.97246895 -38 36 C-33.83599657 31.78762267 -29.64690482 27.72738408 -25.12109375 23.90234375 C-21.53108532 20.6825756 -18.19067582 17.21011446 -14.80126953 13.78173828 C-11.15989983 10.11473266 -7.43626367 6.60883115 -3.48828125 3.26953125 C-1.87189265 1.92460715 -1.87189265 1.92460715 0 0 Z " fill="#3F99C6" transform="translate(481,29)"/>
<path d="M0 0 C0 4.09472487 -1.56764356 5.12978236 -4.25 8.1875 C-8.32817273 12.92431891 -12.15930478 17.78674496 -15.875 22.8125 C-20.34181388 28.83730403 -24.93743536 34.73377265 -29.64453125 40.57226562 C-33.60551653 45.48988573 -37.46766261 50.47300596 -41.3046875 55.48828125 C-44.51253482 59.6774526 -47.75746421 63.83766055 -51 68 C-55.01476809 73.15548566 -59.02101091 78.31684316 -63 83.5 C-68.69469554 90.91613129 -74.44087592 98.29198584 -80.18554688 105.66943359 C-83.12513338 109.44517266 -86.06247715 113.22265535 -89 117 C-90.16665539 118.50000877 -91.33332207 120.00000876 -92.5 121.5 C-93.0775 122.2425 -93.655 122.985 -94.25 123.75 C-127.5 166.5 -127.5 166.5 -129.25097656 168.7512207 C-130.41443312 170.24711662 -131.57784478 171.74304745 -132.74121094 173.23901367 C-135.70661998 177.05209776 -138.67287262 180.86452064 -141.640625 184.67578125 C-146.77594703 191.27201386 -151.9087193 197.86968837 -157 204.5 C-162.69469554 211.91613129 -168.44087592 219.29198584 -174.18554688 226.66943359 C-177.12513338 230.44517266 -180.06247715 234.22265535 -183 238 C-184.16665539 239.50000877 -185.33332207 241.00000876 -186.5 242.5 C-187.0775 243.2425 -187.655 243.985 -188.25 244.75 C-207.5 269.5 -207.5 269.5 -209.25268555 271.75341797 C-210.41044553 273.24198963 -211.56816094 274.73059597 -212.72583008 276.21923828 C-215.77838991 280.14438855 -218.83189535 284.06879857 -221.88671875 287.9921875 C-222.52287109 288.80945313 -223.15902344 289.62671875 -223.81445312 290.46875 C-225.03291752 292.03407652 -226.25165303 293.59919206 -227.47070312 295.1640625 C-228.02048828 295.87046875 -228.57027344 296.576875 -229.13671875 297.3046875 C-229.85927856 298.2325708 -229.85927856 298.2325708 -230.59643555 299.17919922 C-231.05961182 299.78006348 -231.52278809 300.38092773 -232 301 C-232.53898926 301.68755371 -233.07797852 302.37510742 -233.63330078 303.08349609 C-235.22005653 305.30858231 -235.67684867 307.07890074 -236.1875 309.75 C-236.45833333 311.16666667 -236.72916667 312.58333333 -237 314 C-236.14281372 314.10127197 -236.14281372 314.10127197 -235.26831055 314.20458984 C-225.36432037 315.67470603 -216.18653726 319.24269871 -206.8125 322.625 C-205.08035471 323.2429633 -203.34793471 323.86015718 -201.61523438 324.4765625 C-197.40693647 325.97552239 -193.20249371 327.48484769 -189 329 C-190.58232911 333.25769409 -192.41216326 335.82183002 -195.5625 339.125 C-198.94238098 342.72387974 -202.17504485 346.38467177 -205.25 350.25 C-209.54625699 355.57827601 -214.15865907 360.55793537 -218.86425781 365.52246094 C-222.41280458 369.27006757 -225.84696169 373.09323585 -229.23193359 376.98901367 C-259.31185997 411.20171094 -259.31185997 411.20171094 -271 416 C-273.25 415.625 -273.25 415.625 -275 415 C-274.278125 414.67 -273.55625 414.34 -272.8125 414 C-264.84636442 408.33519248 -262.56856519 397.81505458 -259.6875 388.9375 C-259.33091812 387.85246689 -259.33091812 387.85246689 -258.96713257 386.74551392 C-252.91910297 368.29986831 -247.84803374 349.60089538 -244.1171875 330.546875 C-243.62964148 328.12972212 -243.13999675 325.71300056 -242.65023804 323.29629517 C-242.20367738 321.0199638 -241.80253326 318.73892361 -241.40356445 316.45385742 C-239.41827442 306.05737996 -235.39039335 299.38346551 -228.35124207 291.54273987 C-226.16274555 289.04408999 -224.18976776 286.39967724 -222.1875 283.75 C-221.73624756 283.16210693 -221.28499512 282.57421387 -220.82006836 281.96850586 C-220.27298218 281.25513062 -220.27298218 281.25513062 -219.71484375 280.52734375 C-214.77927402 274.10429161 -209.79114743 267.72175966 -204.81445312 261.33056641 C-201.87486664 257.55482736 -198.93749416 253.77736693 -196 250 C-192.45427972 245.44050616 -188.90800104 240.8814516 -185.359375 236.32421875 C-180.22405297 229.72798614 -175.0912807 223.13031163 -170 216.5 C-164.30530446 209.08386871 -158.55912408 201.70801416 -152.81445312 194.33056641 C-149.87486662 190.55482734 -146.93752285 186.77734465 -144 183 C-142.83334461 181.49999123 -141.66667793 179.99999124 -140.5 178.5 C-139.9225 177.7575 -139.345 177.015 -138.75 176.25 C-105.5 133.5 -105.5 133.5 -103.74902344 131.2487793 C-102.58556688 129.75288338 -101.42215522 128.25695255 -100.25878906 126.76098633 C-97.29338002 122.94790224 -94.32712738 119.13547936 -91.359375 115.32421875 C-86.22405297 108.72798614 -81.0912807 102.13031163 -76 95.5 C-70.30530446 88.08386871 -64.55912408 80.70801416 -58.81445312 73.33056641 C-55.87486662 69.55482734 -52.93752285 65.77734465 -50 62 C-48.83334461 60.49999123 -47.66667793 58.99999124 -46.5 57.5 C-45.9225 56.7575 -45.345 56.015 -44.75 55.25 C-43 53 -41.25 50.75 -39.5 48.5 C-38.9220166 47.75685547 -38.3440332 47.01371094 -37.74853516 46.24804688 C-36.58684152 44.75448712 -35.42505828 43.26099704 -34.26318359 41.76757812 C-31.26967497 37.91962149 -28.27793501 34.07030913 -25.2890625 30.21875 C-22.36288825 26.44867314 -19.43215313 22.68219822 -16.49658203 18.91943359 C-15.19201759 17.24627118 -13.89065316 15.57061469 -12.58984375 13.89453125 C-8.68556304 8.9220273 -4.59982265 4.34108263 0 0 Z " fill="#EAEBEB" transform="translate(490,23)"/>
<path d="M0 0 C0 4.09472487 -1.56764356 5.12978236 -4.25 8.1875 C-8.32817273 12.92431891 -12.15930478 17.78674496 -15.875 22.8125 C-20.34181388 28.83730403 -24.93743536 34.73377265 -29.64453125 40.57226562 C-33.60551653 45.48988573 -37.46766261 50.47300596 -41.3046875 55.48828125 C-44.51253482 59.6774526 -47.75746421 63.83766055 -51 68 C-55.01476809 73.15548566 -59.02101091 78.31684316 -63 83.5 C-68.69469554 90.91613129 -74.44087592 98.29198584 -80.18554688 105.66943359 C-83.12513338 109.44517266 -86.06247715 113.22265535 -89 117 C-90.16665539 118.50000877 -91.33332207 120.00000876 -92.5 121.5 C-93.0775 122.2425 -93.655 122.985 -94.25 123.75 C-127.5 166.5 -127.5 166.5 -129.25097656 168.7512207 C-130.41443312 170.24711662 -131.57784478 171.74304745 -132.74121094 173.23901367 C-135.70661998 177.05209776 -138.67287262 180.86452064 -141.640625 184.67578125 C-146.77594703 191.27201386 -151.9087193 197.86968837 -157 204.5 C-162.69469554 211.91613129 -168.44087592 219.29198584 -174.18554688 226.66943359 C-177.12513338 230.44517266 -180.06247715 234.22265535 -183 238 C-184.16665539 239.50000877 -185.33332207 241.00000876 -186.5 242.5 C-187.0775 243.2425 -187.655 243.985 -188.25 244.75 C-207.5 269.5 -207.5 269.5 -209.25268555 271.75341797 C-210.41044553 273.24198963 -211.56816094 274.73059597 -212.72583008 276.21923828 C-215.77838991 280.14438855 -218.83189535 284.06879857 -221.88671875 287.9921875 C-222.52287109 288.80945313 -223.15902344 289.62671875 -223.81445312 290.46875 C-225.03291752 292.03407652 -226.25165303 293.59919206 -227.47070312 295.1640625 C-228.29538086 296.22367187 -228.29538086 296.22367187 -229.13671875 297.3046875 C-229.85927856 298.2325708 -229.85927856 298.2325708 -230.59643555 299.17919922 C-231.05961182 299.78006348 -231.52278809 300.38092773 -232 301 C-232.80848389 302.03809814 -232.80848389 302.03809814 -233.63330078 303.09716797 C-235.12200281 305.16986243 -235.65030435 306.77063544 -236.1875 309.25 C-236.455625 310.4875 -236.72375 311.725 -237 313 C-237.99 312.67 -238.98 312.34 -240 312 C-238.03541278 303.72066816 -233.59506512 298.12385255 -228.34521484 291.66748047 C-226.26363702 289.08723065 -224.26077113 286.4481058 -222.25 283.8125 C-216.47313509 276.29141537 -210.64100405 268.81316643 -204.81445312 261.33056641 C-201.87486664 257.55482736 -198.93749416 253.77736693 -196 250 C-192.45427972 245.44050616 -188.90800104 240.8814516 -185.359375 236.32421875 C-180.22405297 229.72798614 -175.0912807 223.13031163 -170 216.5 C-164.30530446 209.08386871 -158.55912408 201.70801416 -152.81445312 194.33056641 C-149.87486662 190.55482734 -146.93752285 186.77734465 -144 183 C-142.83334461 181.49999123 -141.66667793 179.99999124 -140.5 178.5 C-139.9225 177.7575 -139.345 177.015 -138.75 176.25 C-105.5 133.5 -105.5 133.5 -103.74902344 131.2487793 C-102.58556688 129.75288338 -101.42215522 128.25695255 -100.25878906 126.76098633 C-97.29338002 122.94790224 -94.32712738 119.13547936 -91.359375 115.32421875 C-86.22405297 108.72798614 -81.0912807 102.13031163 -76 95.5 C-70.30530446 88.08386871 -64.55912408 80.70801416 -58.81445312 73.33056641 C-55.87486662 69.55482734 -52.93752285 65.77734465 -50 62 C-48.83334461 60.49999123 -47.66667793 58.99999124 -46.5 57.5 C-45.9225 56.7575 -45.345 56.015 -44.75 55.25 C-43 53 -41.25 50.75 -39.5 48.5 C-38.9220166 47.75685547 -38.3440332 47.01371094 -37.74853516 46.24804688 C-36.58684152 44.75448712 -35.42505828 43.26099704 -34.26318359 41.76757812 C-31.26967497 37.91962149 -28.27793501 34.07030913 -25.2890625 30.21875 C-22.36288825 26.44867314 -19.43215313 22.68219822 -16.49658203 18.91943359 C-15.19201759 17.24627118 -13.89065316 15.57061469 -12.58984375 13.89453125 C-8.68556304 8.9220273 -4.59982265 4.34108263 0 0 Z " fill="#9CD7F4" transform="translate(490,23)"/>
<path d="M0 0 C0 5.52026906 -5.25296661 9.2466606 -9 13 C-11.64140711 15.53060841 -14.33921471 17.99782785 -17.04833984 20.45556641 C-20.74214642 23.81112415 -24.3114345 27.25673995 -27.8125 30.8125 C-30.73092684 33.76447197 -33.64595488 36.62898719 -36.8125 39.3125 C-41.37604095 43.19856683 -45.53585856 47.48287377 -49.72583008 51.76293945 C-52.69059187 54.77168003 -55.70352893 57.65071319 -58.90625 60.40625 C-63.32772004 64.22285613 -67.40923229 68.33471922 -71.5 72.5 C-75.52882861 76.60221347 -79.5391413 80.66176122 -83.90625 84.40625 C-88.86683055 88.67420279 -93.41024136 93.34069956 -98 98 C-107.48801967 107.63177755 -107.48801967 107.63177755 -111.78125 111.28125 C-118.03635071 116.64455925 -123.71102993 122.6450856 -129.5 128.5 C-131.86154853 130.88844982 -134.226603 133.27334995 -136.59375 135.65625 C-137.38005798 136.45500549 -137.38005798 136.45500549 -138.18225098 137.26989746 C-140.89605276 140.00113494 -143.66818671 142.59977771 -146.59739685 145.09938049 C-151.50975321 149.38200205 -156.10012386 153.9599897 -160.70141602 158.57202148 C-161.64668561 159.51593273 -162.59216708 160.45963184 -163.5378418 161.40313721 C-166.08347326 163.94424597 -168.62597487 166.48846409 -171.1677525 169.033427 C-173.84152509 171.70975005 -176.51775801 174.38361113 -179.19358826 177.05787659 C-183.68481254 181.54728698 -188.17393676 186.03878919 -192.66186523 190.53149414 C-197.83369047 195.70876049 -203.00910801 200.88241482 -208.18640572 206.05420822 C-212.64963666 210.51288577 -217.11089667 214.97352836 -221.57054657 219.43578774 C-224.22613706 222.09292878 -226.88237833 224.7494098 -229.54040718 227.40411186 C-232.04043182 229.90122531 -234.53795467 232.40081539 -237.03365326 234.9022522 C-238.37484224 236.24537124 -239.71846162 237.58606205 -241.06217957 238.926651 C-245.38735659 243.26680681 -249.56846572 247.66899319 -253.54891872 252.32861423 C-255.58425967 254.67296251 -257.77650744 256.83502041 -260 259 C-263.55128294 262.51384471 -266.92472844 266.09291971 -270.16796875 269.890625 C-272.32715141 272.37667753 -274.5711348 274.77533092 -276.8125 277.1875 C-280.56646957 281.30364427 -284.0962233 285.5277362 -287.5 289.9375 C-287.92128174 290.48108154 -288.34256348 291.02466309 -288.77661133 291.5847168 C-290.82553363 294.27898878 -292.62575702 296.90048457 -294 300 C-294.99 300 -295.98 300 -297 300 C-295.60371082 295.92809909 -293.69432398 293.10415756 -290.9375 289.8125 C-290.13441406 288.8534375 -289.33132813 287.894375 -288.50390625 286.90625 C-285.41995812 283.32675326 -282.27933566 279.8052527 -279.09765625 276.3125 C-277.30492554 274.33615628 -275.55204773 272.3354327 -273.8125 270.3125 C-265.70948004 261.02229339 -257.22095088 252.0303691 -248.37890625 243.44140625 C-246.4488291 241.460621 -244.65095858 239.45262679 -242.85203552 237.35621643 C-239.06430867 233.01523502 -235.06686327 228.92584658 -230.98852539 224.85913086 C-230.2200679 224.08892105 -229.45161041 223.31871124 -228.65986633 222.52516174 C-226.1416236 220.00255001 -223.6197787 217.48357607 -221.09765625 214.96484375 C-219.33306018 213.19957322 -217.56861251 211.43415433 -215.80430603 209.66859436 C-211.64408703 205.50671739 -207.48130604 201.34741515 -203.31759399 197.18903309 C-200.00910851 193.8843018 -196.70317199 190.57703642 -193.39868164 187.26831055 C-188.82178819 182.68560287 -184.24243635 178.1053679 -179.66100883 173.52719307 C-177.9224463 171.78929479 -176.18461848 170.05066119 -174.44755745 168.31126213 C-172.01441486 165.87556323 -169.57806066 163.44312123 -167.14086914 161.01147461 C-166.43256958 160.30115082 -165.72427002 159.59082703 -164.99450684 158.85897827 C-161.0623326 154.94325481 -157.03489577 151.20238187 -152.81799221 147.59425449 C-149.638081 144.80569044 -146.68786424 141.7906433 -143.71875 138.78125 C-143.06096558 138.11967896 -142.40318115 137.45810791 -141.72546387 136.77648926 C-139.64782726 134.68677265 -137.57349373 132.59382685 -135.5 130.5 C-132.7634185 127.736583 -130.02337737 124.97666278 -127.28125 122.21875 C-126.36369934 121.28875183 -126.36369934 121.28875183 -125.4276123 120.33996582 C-121.70114013 116.59277839 -117.84115136 113.07185996 -113.84240723 109.61755371 C-111.42802739 107.49783283 -109.16098324 105.25672255 -106.90625 102.96875 C-106.02066406 102.07542969 -105.13507813 101.18210937 -104.22265625 100.26171875 C-103.32417969 99.35035156 -102.42570313 98.43898438 -101.5 97.5 C-96.13574569 92.05878365 -90.7789283 86.72289158 -84.97460938 81.75195312 C-81.14061805 78.3502813 -77.59201778 74.65331501 -74 71 C-69.11335223 66.02996234 -64.18904958 61.2231139 -58.90234375 56.6796875 C-55.7890743 53.93080482 -52.90403042 50.96645619 -50 48 C-45.83599657 43.78762267 -41.64690482 39.72738408 -37.12109375 35.90234375 C-34.12860779 33.21847513 -31.32566741 30.35765911 -28.5 27.5 C-25.10993619 24.07155449 -21.74806043 20.67739301 -18.0625 17.5625 C-11.65687546 12.13916346 -5.89245207 5.96693531 0 0 Z " fill="#9DD7F4" transform="translate(485,22)"/>
<path d="M0 0 C0 4.13781054 -1.71509607 5.20919996 -4.5 8.1875 C-5.3353125 9.08855469 -6.170625 9.98960938 -7.03125 10.91796875 C-7.6809375 11.60503906 -8.330625 12.29210938 -9 13 C-9.66 12.34 -10.32 11.68 -11 11 C-7.37 7.37 -3.74 3.74 0 0 Z " fill="#94D4F4" transform="translate(485,22)"/>
<path d="M0 0 C0.66 0 1.32 0 2 0 C1.60196439 2.88575819 1.20990931 3.82189513 -1.0625 5.75 C-1.701875 6.1625 -2.34125 6.575 -3 7 C-2.25 2.25 -2.25 2.25 0 0 Z " fill="#53AFDD" transform="translate(485,24)"/>
</svg>
